<svg width="16" height="16" viewBox="0 0 16 16" fill="none" xmlns="http://www.w3.org/2000/svg">
<path d="M7.8692 0C3.52362 0 0 3.58164 0 8C0 12.4184 3.52327 16 7.8692 16C12.2155 16 15.7384 12.4184 15.7384 8C15.7384 3.58164 12.2155 0 7.8692 0ZM7.8692 2.39209C9.30713 2.39209 10.4723 3.57707 10.4723 5.03826C10.4723 6.4998 9.30713 7.68443 7.8692 7.68443C6.43196 7.68443 5.26676 6.4998 5.26676 5.03826C5.26676 3.57707 6.43196 2.39209 7.8692 2.39209ZM7.86747 13.9084C6.43334 13.9084 5.11985 13.3774 4.10674 12.4985C3.85994 12.2845 3.71753 11.9707 3.71753 11.6414C3.71753 10.1595 4.89725 8.97342 6.35523 8.97342H9.38386C10.8422 8.97342 12.0174 10.1595 12.0174 11.6414C12.0174 11.971 11.8757 12.2841 11.6285 12.4981C10.6158 13.3774 9.30194 13.9084 7.86747 13.9084Z" fill="#2F3245"/>
</svg>
