<svg width="177" height="26" viewBox="0 0 177 26" fill="none" xmlns="http://www.w3.org/2000/svg">
<path d="M10.2857 25.571C6.60317 25.571 2.92063 24.268 0 21.5969L3.14286 17.7205C5.33333 19.5773 7.61905 20.7499 10.381 20.7499C12.5714 20.7499 13.873 19.8704 13.873 18.4046V18.3394C13.873 16.9387 13.0476 16.2547 8.98413 15.1797C4.12698 13.8767 0.984127 12.476 0.984127 7.55728V7.49213C0.984127 2.96428 4.50794 0 9.46032 0C12.9841 0 16 1.14011 18.4762 3.15972L15.7143 7.29668C13.5556 5.76568 11.4603 4.8536 9.39682 4.8536C7.33333 4.8536 6.28571 5.79826 6.28571 7.03609V7.10124C6.28571 8.72996 7.33333 9.28373 11.5238 10.3587C16.4444 11.6617 19.2063 13.4858 19.2063 17.8182V17.8834C19.1746 22.8021 15.5238 25.571 10.2857 25.571Z" fill="#1D1D1F"/>
<path d="M41.9372 5.04904V24.8869H36.6039V5.04904H29.207V0H49.3023V5.04904H41.9372Z" fill="#1D1D1F"/>
<path d="M72.1579 25.7338C64.6659 25.7338 59.3008 20.0007 59.3008 12.9321V12.8669C59.3008 5.79826 64.7294 0 72.2214 0C79.7135 0 85.0786 5.73311 85.0786 12.8018V12.8669C85.0786 19.9356 79.6182 25.7338 72.1579 25.7338ZM79.4913 12.8669C79.4913 8.59966 76.4436 5.04904 72.1579 5.04904C67.8722 5.04904 64.8881 8.53451 64.8881 12.8018V12.8669C64.8881 17.1342 67.9357 20.6848 72.2214 20.6848C76.5071 20.6848 79.4913 17.1993 79.4913 12.9321V12.8669Z" fill="#1D1D1F"/>
<path d="M109.808 24.8869L104.602 16.9387H100.411V24.8869H95.0781V0H106.157C111.872 0 115.3 3.09458 115.3 8.20877V8.27392C115.3 12.2806 113.173 14.8214 110.094 15.9941L116.03 24.8869H109.808ZM109.935 8.50194C109.935 6.15658 108.348 4.95132 105.745 4.95132H100.443V12.0851H105.84C108.443 12.0851 109.935 10.6519 109.935 8.56709V8.50194Z" fill="#1D1D1F"/>
<path d="M126.031 24.8869V0H144.317V4.8536H131.333V9.90264H142.761V14.7562H131.333V19.9682H144.507V24.8217H126.031V24.8869Z" fill="#1D1D1F"/>
<path d="M163.968 24.8869H154.508V0H163.968C171.587 0 176.857 5.37479 176.857 12.3783V12.4434C176.857 19.447 171.587 24.8869 163.968 24.8869ZM171.301 12.4434C171.301 8.04589 168.349 4.95132 164 4.95132H159.873V19.9356H164C168.349 19.9356 171.301 16.9062 171.301 12.5086V12.4434Z" fill="#1D1D1F"/>
</svg>
